<?xml version="1.0" encoding="utf-8"?>
<!-- Generator: Adobe Illustrator 25.1.0, SVG Export Plug-In . SVG Version: 6.00 Build 0)  -->
<svg version="1.1" id="Capa_1" xmlns="http://www.w3.org/2000/svg" xmlns:xlink="http://www.w3.org/1999/xlink" x="0px" y="0px"
	 viewBox="0 0 476 164" style="enable-background:new 0 0 476 164;" xml:space="preserve">
<style type="text/css">
	.st0{fill:#EF4035;}
</style>
<g>
	<path class="st0" d="M127.5,8.4L52.9,159.6c-0.2,0.4-0.7,0.7-1.2,0.7L7,160.1c-0.7,0-1.3-0.6-1.3-1.3c0-0.2,0-0.4,0.1-0.6L79.5,7.6
		c0.2-0.4,0.7-0.7,1.2-0.7l45.6-0.3c0.7,0,1.3,0.6,1.3,1.3C127.6,8,127.5,8.2,127.5,8.4z"/>
	<path class="st0" d="M212.5,79.5c0.2-0.3,0.5-0.9,0.8-1.8c3.7-10.9,7.3-21.8,10.9-32.7c1.2-3.6-0.1-7.9-4.6-7.9
		c-7.1,0-15,1.6-22.2,2.6c-8,1.1-13.8,5.3-17.4,12.4c-17.6,35.3-35.1,70.5-52.7,105.6c-0.8,1.7-2.2,2.5-4,2.5l-43.5,0
		c-0.6,0-1.1-0.5-1.1-1.1c0-0.2,0-0.3,0.1-0.5c16.6-33.8,33.4-67.6,50.4-101.6c4.2-8.4,7.5-14.3,9.7-17.5
		c12.2-17.4,29.5-26.2,50.1-29.8c10-1.7,20-2.6,30.2-2.7c0.5,0,1.1-0.3,1.7-0.4c19.3-0.4,38.5-0.4,57.8-0.1c1.4,0,2.6,0,3.6,0
		c1,0,1.8,0.7,1.8,1.7c0,0.2,0,0.4-0.1,0.6l-49.2,148.6c-0.6,1.7-2.1,2.8-3.9,2.8h-43c-0.6,0-1.2-0.4-1.4-1.1
		c-0.3-1.1,0.5-2.4,0.8-3.3c4.8-13.9,9.6-28,14.5-42.3c0.3-0.8-0.2-1.7-1-2c-0.2-0.1-0.4-0.1-0.5-0.1l-36.2,0.7
		c-1.2,0-2.2-0.9-2.2-2.1c0-0.3,0.1-0.7,0.2-1c3.7-7.6,7.6-15.2,11.5-22.9c1.8-3.6,3.7-5.4,7.8-5.3c9.6,0,19.4,0,29.5-0.2
		C211.3,80.7,211.9,80.3,212.5,79.5z"/>
	<path class="st0" d="M470,7.3l0.3,0.2c0.4,0.2,0.6,0.7,0.4,1.1c0,0,0,0,0,0C453.9,42.8,437,76.7,420,110.4
		c-3.3,6.6-8.4,13.7-15.1,21.4c-13,14.7-30.5,28.2-51.1,28.7c-13.1,0.3-26.2,0-39.3-0.9c-0.6,0-1.1-0.5-1.2-1.2L298.2,8.8
		c-0.1-1.1,0.7-2.2,1.9-2.3c0.1,0,0.1,0,0.2,0L342,6.5c1.2,0,2.1,0.9,2.3,2.1L355.8,125c0.1,1,1,1.8,2,1.7c0.3,0,0.6-0.1,0.9-0.3
		c6.1-4.1,9.5-8.5,13-15.5c17.1-33.4,33.8-67.1,50.1-100.9c1.4-2.9,2.6-3.4,5.7-3.4c13.9,0,27.7,0,41.6,0c0.2,0,0.4,0.1,0.5,0.3
		l0.2,0.2C469.8,7.1,469.9,7.2,470,7.3z"/>
</g>
</svg>
