<?xml version="1.0" encoding="UTF-8" standalone="no"?>
<!DOCTYPE svg PUBLIC "-//W3C//DTD SVG 1.1//EN" "http://www.w3.org/Graphics/SVG/1.1/DTD/svg11.dtd">
<svg xmlns="http://www.w3.org/2000/svg" version="1.1" viewBox="0.00 0.00 793.00 263.00" width="793.00" height="263.00">
<g stroke-width="2.00" fill="none" stroke-linecap="butt">
<path stroke="#48507f" vector-effect="non-scaling-stroke" d="
  M 370.91 168.99
  Q 369.86 169.07 369.64 169.81"
/>
<path stroke="#48507f" vector-effect="non-scaling-stroke" d="
  M 371.12 171.41
  Q 372.00 171.21 372.36 170.10"
/>
<path stroke="#48507f" vector-effect="non-scaling-stroke" d="
  M 403.08 183.96
  Q 403.77 183.16 404.10 181.98"
/>
<path stroke="#48507f" vector-effect="non-scaling-stroke" d="
  M 403.87 180.89
  L 402.24 183.99"
/>
<path stroke="#48507f" vector-effect="non-scaling-stroke" d="
  M 645.00 245.21
  Q 645.43 244.58 645.54 244.06"
/>
<path stroke="#48507f" vector-effect="non-scaling-stroke" d="
  M 643.88 243.80
  Q 643.39 244.06 643.29 244.85"
/>
</g>
<g fill="#ef4035">
<path d="
  M 311.45 2.41
  L 236.85 153.62
  A 1.30 1.30 0.0 0 1 235.68 154.35
  L 191.01 154.07
  A 1.30 1.30 0.0 0 1 189.85 152.20
  L 263.53 1.55
  A 1.30 1.30 0.0 0 1 264.69 0.82
  L 310.27 0.53
  A 1.30 1.30 0.0 0 1 311.45 2.41
  Z"
/>
<path d="
  M 396.46 73.49
  Q 396.79 73.00 397.21 71.73
  Q 402.69 55.35 408.15 38.99
  C 409.36 35.38 408.02 31.09 403.50 31.08
  C 396.42 31.07 388.50 32.70 381.26 33.72
  Q 369.26 35.40 363.90 46.17
  Q 337.55 99.08 311.23 151.78
  Q 310.00 154.26 307.24 154.26
  L 263.78 154.25
  A 1.08 1.07 13.0 0 1 262.81 152.71
  Q 287.67 102.07 313.18 51.14
  Q 319.52 38.47 322.88 33.69
  C 335.12 16.31 352.34 7.49 373.02 3.86
  Q 388.00 1.24 403.20 1.20
  C 403.70 1.20 404.32 0.85 404.87 0.84
  Q 433.75 0.26 462.63 0.72
  Q 464.78 0.76 466.21 0.72
  A 1.74 1.74 0.0 0 1 467.92 3.01
  L 418.68 151.57
  A 4.10 4.10 0.0 0 1 414.79 154.38
  L 371.75 154.38
  A 1.41 1.41 0.0 0 1 370.39 153.33
  C 370.11 152.26 370.86 150.88 371.16 150.02
  Q 378.29 129.22 385.68 107.74
  A 1.57 1.56 8.9 0 0 384.17 105.67
  L 348.00 106.35
  A 2.18 2.18 0.0 0 1 346.01 103.20
  Q 351.60 91.87 357.49 80.27
  C 359.33 76.64 361.22 74.91 365.25 74.92
  Q 379.63 74.94 394.70 74.74
  Q 395.64 74.72 396.46 73.49
  Z"
/>
<path d="
  M 654.01 1.29
  L 654.35 1.45
  A 0.82 0.81 26.1 0 1 654.73 2.55
  Q 629.48 53.86 603.95 104.45
  Q 598.96 114.34 588.83 125.83
  C 575.85 140.57 558.36 154.08 537.76 154.49
  Q 518.13 154.88 498.46 153.57
  A 1.30 1.30 0.0 0 1 497.25 152.40
  L 482.18 2.75
  A 2.09 2.09 0.0 0 1 484.27 0.45
  L 526.05 0.50
  A 2.28 2.27 87.1 0 1 528.31 2.55
  L 539.81 118.99
  A 1.86 1.85 -19.7 0 0 542.69 120.35
  C 548.78 116.25 552.14 111.89 555.74 104.85
  Q 581.43 54.70 605.83 3.90
  C 607.21 1.02 608.45 0.51 611.50 0.51
  Q 632.28 0.49 653.07 0.51
  Q 653.38 0.51 653.54 0.77
  L 653.69 1.01
  A 0.75 0.72 84.9 0 0 654.01 1.29
  Z"
/>
</g>
<g fill="#233391">
<path d="
  M 370.91 168.99
  Q 369.86 169.07 369.64 169.81
  Q 365.44 173.31 359.81 174.17
  A 1.73 1.73 0.0 0 1 357.91 171.93
  Q 361.54 160.69 373.04 164.70
  A 0.98 0.98 0.0 0 1 373.31 166.41
  Q 371.95 167.43 370.91 168.99
  Z"
/>
<path d="
  M 223.12 170.99
  C 217.70 170.65 214.59 170.18 212.13 175.36
  Q 206.97 186.23 202.11 196.52
  Q 200.81 199.27 197.77 199.27
  L 193.23 199.27
  Q 190.09 199.27 191.46 196.45
  Q 197.71 183.56 203.97 170.97
  Q 206.37 166.15 210.88 164.58
  Q 213.41 163.70 219.68 164.13
  C 225.72 164.56 235.54 163.49 236.55 171.74
  Q 236.84 174.14 235.26 177.53
  Q 230.28 188.21 225.29 198.68
  Q 225.18 198.90 224.93 198.90
  L 214.53 198.79
  A 0.16 0.15 -75.7 0 1 214.40 198.56
  Q 219.95 187.49 225.41 176.78
  C 226.85 173.96 227.35 171.25 223.12 170.99
  Z"
/>
<path d="
  M 331.86 170.95
  Q 328.70 172.11 330.86 173.91
  C 334.83 177.22 338.82 178.67 343.46 180.70
  C 347.09 182.29 349.86 185.59 349.14 189.64
  C 348.10 195.42 342.91 197.64 337.73 198.45
  Q 327.10 200.11 316.44 199.11
  A 1.59 1.59 0.0 0 1 315.05 197.13
  L 315.68 194.65
  Q 316.32 192.12 318.93 192.18
  Q 327.31 192.34 336.25 192.47
  Q 337.98 192.49 339.03 192.29
  A 1.13 1.13 0.0 0 0 339.51 190.29
  C 334.57 186.46 328.25 183.49 322.78 180.45
  C 319.24 178.48 319.63 172.16 322.27 169.52
  C 328.74 163.03 345.00 163.38 353.37 164.37
  A 1.23 1.22 -76.3 0 1 354.37 166.03
  C 353.60 168.06 352.94 170.81 350.25 171.03
  C 344.44 171.50 338.40 170.80 332.52 170.83
  A 1.89 1.87 -54.9 0 0 331.86 170.95
  Z"
/>
<path d="
  M 403.08 183.96
  Q 403.77 183.16 404.10 181.98
  C 407.99 180.88 411.31 182.73 414.48 181.84
  C 417.85 180.90 420.91 176.41 418.47 173.19
  C 416.32 170.34 411.88 170.36 408.86 171.73
  A 1.79 1.77 0.3 0 0 407.98 172.59
  L 403.87 180.89
  L 402.24 183.99
  L 395.75 197.15
  A 4.08 4.07 15.1 0 1 391.79 199.42
  L 387.78 199.13
  Q 384.42 198.89 385.92 195.86
  Q 393.20 181.22 400.78 166.03
  Q 400.94 165.71 401.77 165.01
  Q 402.30 164.57 403.01 164.45
  C 409.69 163.33 431.92 162.22 430.36 173.76
  Q 428.74 185.69 417.62 187.56
  A 1.58 1.58 0.0 0 0 416.65 190.10
  L 421.41 196.03
  A 2.31 2.31 0.0 0 1 419.27 199.77
  L 412.06 198.71
  A 1.79 1.79 0.0 0 1 410.64 197.54
  C 408.79 192.35 405.18 188.96 403.08 183.96
  Z"
/>
<path d="
  M 468.91 188.48
  C 466.90 188.46 464.94 188.89 462.94 187.78
  C 460.95 186.67 460.92 184.73 462.65 183.37
  Q 466.24 180.55 470.05 181.36
  A 2.57 2.57 0.0 0 0 472.92 179.92
  L 475.92 173.40
  A 1.75 1.74 16.5 0 0 474.58 170.94
  C 463.08 169.26 456.68 190.27 453.43 198.53
  A 0.44 0.44 0.0 0 1 453.02 198.81
  L 443.00 198.84
  A 0.21 0.21 0.0 0 1 442.80 198.55
  Q 445.55 191.81 450.00 182.24
  C 457.62 165.89 468.89 161.94 486.22 164.56
  Q 488.41 164.89 487.73 167.00
  L 478.06 197.30
  A 2.21 2.20 8.9 0 1 475.96 198.83
  L 468.51 198.82
  A 1.63 1.63 0.0 0 1 467.11 196.35
  C 468.37 194.23 470.03 191.56 469.55 189.02
  Q 469.45 188.49 468.91 188.48
  Z"
/>
<path d="
  M 283.52 191.68
  Q 283.59 192.61 284.52 192.57
  L 294.21 192.22
  A 3.99 3.99 0.0 0 0 297.66 189.95
  L 308.87 166.33
  Q 309.93 164.11 312.38 164.15
  L 318.22 164.24
  Q 320.65 164.28 319.59 166.47
  Q 314.06 177.91 308.41 189.32
  C 305.10 195.98 302.35 199.66 294.75 199.21
  Q 288.99 198.87 283.21 198.65
  Q 279.07 198.50 277.11 197.12
  C 272.78 194.09 273.86 189.64 275.90 185.20
  Q 280.33 175.60 284.75 165.99
  C 286.11 163.05 292.25 164.19 294.83 164.18
  A 1.33 1.33 0.0 0 1 296.02 166.11
  Q 289.82 178.40 283.94 190.09
  Q 283.47 191.03 283.52 191.68
  Z"
/>
<path d="
  M 200.31 165.68
  L 184.09 199.00
  A 1.07 1.07 0.0 0 1 183.07 199.60
  L 175.17 199.13
  A 1.07 1.07 0.0 0 1 174.28 197.59
  L 190.31 164.81
  A 1.07 1.07 0.0 0 1 191.26 164.21
  L 199.34 164.14
  A 1.07 1.07 0.0 0 1 200.31 165.68
  Z"
/>
<path d="
  M 271.51 169.49
  C 281.04 190.77 257.56 203.75 240.05 197.66
  Q 235.46 196.07 235.21 191.73
  Q 235.08 189.40 237.03 185.16
  Q 241.41 175.60 245.80 166.04
  C 246.56 164.36 248.07 164.46 249.61 164.30
  C 254.12 163.82 269.25 164.44 271.51 169.49
  Z
  M 254.21 171.69
  Q 249.19 181.22 244.55 189.65
  Q 243.54 191.50 245.77 192.25
  A 2.39 2.35 -31.4 0 0 246.20 192.35
  Q 258.13 193.96 263.42 183.65
  C 266.77 177.12 263.55 167.21 254.53 171.39
  A 0.73 0.70 0.9 0 0 254.21 171.69
  Z"
/>
<path d="
  M 371.12 171.41
  Q 372.00 171.21 372.36 170.10
  C 374.19 169.11 375.97 167.63 377.72 166.84
  Q 385.89 163.15 394.72 164.39
  Q 397.19 164.74 396.10 166.98
  L 394.05 171.23
  A 4.53 4.51 12.8 0 1 390.00 173.77
  L 380.26 173.78
  A 2.60 2.60 0.0 0 0 377.94 175.21
  L 366.83 197.33
  Q 365.63 199.73 362.95 199.53
  L 358.00 199.16
  Q 355.36 198.96 356.47 196.56
  C 360.62 187.56 364.44 178.77 371.12 171.41
  Z"
/>
<path d="
  M 452.37 166.14
  L 436.19 198.57
  A 1.35 1.35 0.0 0 1 434.96 199.31
  L 427.77 199.18
  A 1.35 1.35 0.0 0 1 426.58 197.24
  L 442.16 165.01
  A 1.35 1.35 0.0 0 1 443.37 164.24
  L 451.15 164.19
  A 1.35 1.35 0.0 0 1 452.37 166.14
  Z"
/>
<path d="
  M 561.13 180.27
  Q 566.48 180.38 571.73 179.51
  C 576.22 178.77 578.12 183.94 574.02 185.25
  Q 565.66 187.92 558.86 186.07
  Q 555.20 185.08 556.23 188.72
  L 556.78 190.64
  Q 557.82 194.33 561.65 194.25
  L 573.06 194.02
  Q 575.95 193.96 574.84 196.64
  L 574.59 197.22
  Q 573.45 199.95 570.53 200.40
  C 558.43 202.26 546.04 198.84 547.90 183.58
  C 550.07 165.90 570.53 164.74 583.91 165.78
  Q 587.21 166.04 585.61 168.94
  L 584.89 170.25
  Q 583.32 173.08 580.10 172.80
  C 575.15 172.38 560.01 171.81 560.60 179.77
  Q 560.64 180.26 561.13 180.27
  Z"
/>
<path d="
  M 541.74 188.69
  C 534.74 199.89 520.01 205.67 508.15 197.32
  C 504.23 194.56 506.87 187.14 508.43 183.74
  Q 512.29 175.35 516.83 167.31
  A 1.94 1.92 -77.8 0 1 518.34 166.33
  C 524.09 165.81 531.05 165.71 536.64 167.86
  C 546.66 171.72 546.77 180.66 541.74 188.69
  Z
  M 522.59 175.88
  C 520.12 181.28 517.60 186.66 515.21 192.10
  A 1.49 1.49 0.0 0 0 516.53 194.19
  Q 534.61 194.74 535.97 176.84
  C 536.39 171.43 524.71 171.23 522.59 175.88
  Z"
/>
<path d="
  M 223.05 225.50
  A 1.67 1.67 0.0 0 1 223.79 227.74
  L 208.87 257.54
  A 5.22 3.81 -63.4 0 1 203.12 260.50
  L 201.05 259.46
  A 5.22 3.81 -63.4 0 1 199.98 253.09
  L 214.90 223.29
  A 1.67 1.67 0.0 0 1 217.14 222.54
  L 223.05 225.50
  Z"
/>
<path d="
  M 500.30 248.35
  L 500.44 248.80
  Q 501.50 252.17 505.04 252.18
  L 517.23 252.24
  Q 519.51 252.25 519.04 254.48
  L 518.70 256.06
  Q 518.19 258.44 515.80 258.87
  Q 505.91 260.66 499.33 257.68
  C 490.27 253.58 489.47 244.33 493.74 236.27
  C 500.31 223.87 515.98 222.03 528.71 224.45
  Q 530.88 224.86 529.78 226.77
  L 528.43 229.12
  A 3.62 3.61 17.4 0 1 524.96 230.93
  C 519.93 230.49 505.38 230.32 504.57 237.56
  A 1.02 1.02 0.0 0 0 505.61 238.69
  L 517.52 238.31
  Q 520.90 238.20 519.47 241.27
  L 519.08 242.10
  Q 517.70 245.04 514.46 245.12
  L 502.39 245.42
  Q 499.39 245.49 500.30 248.35
  Z"
/>
<path d="
  M 31.77 230.72
  C 26.52 228.31 19.65 237.93 17.74 242.01
  Q 14.54 248.86 11.62 256.42
  Q 10.28 259.87 6.60 259.51
  L 3.01 259.17
  Q -0.53 258.83 1.11 255.67
  Q 7.68 243.04 14.60 229.56
  C 16.07 226.71 18.59 225.73 21.89 225.45
  Q 31.45 224.64 41.04 224.09
  C 42.38 224.02 43.53 223.52 44.84 224.52
  A 1.15 1.15 0.0 0 1 45.24 225.79
  L 35.38 256.85
  A 3.76 3.75 -79.7 0 1 31.61 259.46
  L 27.01 259.24
  A 2.35 2.35 0.0 0 1 24.96 255.99
  L 27.36 250.24
  A 1.42 1.42 0.0 0 0 26.21 248.28
  L 21.02 247.65
  A 2.09 2.09 0.0 0 1 19.44 244.57
  L 20.14 243.30
  A 3.93 3.92 -72.0 0 1 24.10 241.28
  Q 26.14 241.55 27.97 241.35
  C 32.65 240.84 33.22 234.83 32.30 231.34
  Q 32.18 230.91 31.77 230.72
  Z"
/>
<path d="
  M 146.65 248.60
  C 144.40 248.25 140.92 247.76 139.12 246.08
  A 1.80 1.80 0.0 0 1 139.50 243.18
  C 143.46 241.06 145.49 241.52 149.49 241.42
  A 1.80 1.80 0.0 0 0 151.16 240.17
  Q 152.18 236.96 152.90 233.47
  Q 153.35 231.27 150.98 231.16
  C 144.63 230.85 140.26 237.30 138.05 242.45
  A 1.17 1.17 0.0 0 0 137.99 243.15
  Q 138.14 243.88 137.51 243.98
  Q 136.95 244.07 136.74 244.60
  L 132.18 256.22
  Q 130.76 259.82 126.90 259.48
  L 123.98 259.23
  Q 120.33 258.91 121.81 255.56
  Q 126.50 244.91 132.09 235.34
  C 139.17 223.21 152.27 222.61 164.36 224.49
  Q 166.43 224.81 165.78 226.80
  Q 161.81 238.92 157.72 251.02
  C 155.73 256.88 155.74 259.81 149.02 259.47
  Q 146.99 259.37 145.82 258.95
  A 1.07 1.04 -87.2 0 1 145.14 258.18
  C 144.57 255.63 146.11 252.90 147.58 250.89
  A 1.45 1.45 0.0 0 0 146.65 248.60
  Z"
/>
<path d="
  M 179.21 234.52
  C 184.31 237.56 189.86 239.22 194.26 243.21
  C 198.42 246.98 198.53 253.33 193.18 256.15
  C 184.97 260.47 173.50 260.36 164.82 258.84
  Q 161.71 258.30 162.93 255.39
  L 163.24 254.65
  Q 164.58 251.47 168.01 251.81
  C 173.29 252.34 183.48 253.47 187.07 251.46
  A 0.98 0.97 -45.4 0 0 187.06 249.75
  Q 177.71 244.77 168.87 238.65
  Q 167.29 237.56 167.65 234.49
  C 168.31 228.92 171.63 226.64 177.04 225.46
  Q 188.74 222.91 200.18 224.23
  Q 203.44 224.61 201.92 227.52
  L 201.64 228.06
  Q 199.94 231.31 196.28 231.32
  Q 189.40 231.34 182.05 230.96
  C 180.05 230.86 178.65 231.60 178.73 233.71
  A 0.99 0.97 -76.1 0 0 179.21 234.52
  Z"
/>
<path d="
  M 328.48 232.31
  Q 328.38 232.99 328.53 233.67
  Q 328.65 234.19 329.12 234.45
  Q 337.15 239.08 345.38 243.37
  Q 346.80 244.11 347.12 246.53
  C 349.17 262.02 321.15 259.90 312.94 258.57
  Q 311.95 258.41 312.41 257.52
  L 314.72 253.05
  Q 315.18 252.16 316.19 252.16
  L 335.25 252.23
  A 1.98 1.98 0.0 0 0 336.89 251.36
  Q 337.81 249.98 336.31 249.18
  Q 328.61 245.11 320.85 241.16
  C 317.73 239.57 316.40 233.79 318.20 230.85
  C 322.90 223.19 343.46 223.56 350.64 224.28
  Q 353.22 224.55 352.20 226.93
  L 351.59 228.37
  A 4.08 4.08 0.0 0 1 347.75 230.85
  C 339.91 230.67 335.71 230.66 329.00 231.78
  Q 328.54 231.86 328.48 232.31
  Z"
/>
<path d="
  M 426.41 237.82
  A 1.04 1.04 0.0 0 0 427.47 238.76
  L 439.30 238.54
  Q 442.53 238.48 441.49 241.54
  L 441.40 241.83
  Q 440.37 244.86 437.17 245.06
  Q 431.60 245.41 426.15 244.81
  Q 422.41 244.39 422.88 248.12
  L 422.94 248.64
  Q 423.38 252.20 426.97 252.22
  L 439.74 252.28
  A 1.25 1.24 -0.2 0 1 440.98 253.50
  C 441.14 260.66 431.73 259.62 427.27 258.86
  C 412.78 256.41 408.84 242.14 418.16 231.64
  C 425.82 223.03 440.21 222.81 450.73 224.27
  Q 452.82 224.56 451.94 226.48
  L 450.60 229.38
  A 2.48 2.48 0.0 0 1 448.30 230.82
  Q 445.07 230.76 440.86 230.76
  C 437.40 230.77 425.85 232.15 426.41 237.82
  Z"
/>
<path d="
  M 469.50 223.85
  C 474.75 224.20 480.76 223.74 485.73 225.25
  C 490.29 226.65 491.16 232.88 489.45 236.50
  Q 484.92 246.07 480.12 256.38
  Q 478.53 259.80 474.76 259.55
  L 471.78 259.36
  Q 467.95 259.10 469.67 255.68
  L 480.72 233.67
  A 1.56 1.56 0.0 0 0 479.61 231.43
  Q 475.89 230.75 471.51 230.76
  C 468.70 230.76 467.28 232.67 466.04 235.20
  Q 460.99 245.56 456.09 256.04
  Q 454.02 260.47 449.19 259.63
  L 448.43 259.50
  Q 443.83 258.70 445.89 254.52
  Q 451.10 243.94 456.57 233.16
  C 459.52 227.35 462.93 223.41 469.50 223.85
  Z"
/>
<path d="
  M 536.80 251.29
  L 536.76 251.72
  Q 536.67 252.52 537.47 252.51
  L 552.43 252.19
  Q 555.62 252.12 554.74 255.19
  L 554.46 256.19
  A 4.45 4.44 -79.9 0 1 549.87 259.39
  Q 542.05 258.82 536.05 258.71
  C 531.28 258.62 527.30 257.55 526.86 252.37
  C 526.41 246.99 533.58 242.30 537.84 240.19
  Q 544.06 237.11 549.73 233.59
  A 1.52 1.51 -51.8 0 0 549.41 230.86
  Q 548.63 230.60 547.25 230.80
  Q 541.49 231.60 536.22 231.67
  Q 533.58 231.70 534.50 229.23
  L 535.40 226.83
  Q 536.26 224.53 538.69 224.25
  C 543.99 223.63 561.55 223.32 559.52 232.76
  C 557.80 240.81 543.59 246.76 537.17 250.70
  Q 536.84 250.90 536.80 251.29
  Z"
/>
<path d="
  M 599.9023 231.7893
  A 21.19 16.81 -28.1 0 1 589.1277 256.5986
  A 21.19 16.81 -28.1 0 1 562.5177 251.7507
  A 21.19 16.81 -28.1 0 1 573.2923 226.9414
  A 21.19 16.81 -28.1 0 1 599.9023 231.7893
  Z
  M 572.3850 251.4988
  A 13.31 8.90 132.4 0 0 587.9323 247.6713
  A 13.31 8.90 132.4 0 0 590.3350 231.8412
  A 13.31 8.90 132.4 0 0 574.7877 235.6687
  A 13.31 8.90 132.4 0 0 572.3850 251.4988
  Z"
/>
<path d="
  M 702.63 233.14
  Q 702.80 231.01 700.67 230.89
  C 696.42 230.65 690.37 229.32 688.02 234.14
  Q 682.97 244.47 678.19 254.93
  C 676.77 258.06 676.40 258.89 672.75 259.13
  Q 670.31 259.29 668.07 259.25
  A 1.57 1.57 0.0 0 1 666.69 256.99
  Q 673.04 243.95 679.41 230.73
  Q 682.38 224.55 689.25 223.91
  Q 692.58 223.59 703.17 224.99
  Q 706.95 225.50 708.86 227.10
  Q 713.31 230.83 710.51 237.00
  Q 706.61 245.58 702.20 255.73
  Q 700.72 259.14 697.00 259.15
  L 693.18 259.16
  Q 689.53 259.17 691.20 255.92
  Q 696.50 245.63 702.01 234.72
  Q 702.59 233.57 702.63 233.14
  Z"
/>
<path d="
  M 240.27 249.46
  Q 240.81 250.22 241.88 250.27
  A 1.66 1.66 0.0 0 0 243.45 249.34
  L 254.72 226.33
  A 3.81 3.79 -77.0 0 1 258.11 224.20
  L 264.07 224.16
  Q 266.39 224.14 265.44 226.26
  C 259.39 239.75 251.99 263.29 231.83 258.61
  Q 230.32 258.26 230.19 256.70
  L 227.73 226.48
  A 2.09 2.09 0.0 0 1 229.77 224.21
  L 235.36 224.08
  A 2.38 2.37 81.2 0 1 237.69 225.79
  Q 238.20 227.57 238.29 229.75
  Q 238.68 239.24 239.73 248.70
  A 0.94 0.01 54.2 0 0 240.27 249.46
  Z"
/>
<path d="
  M 751.9348 231.5424
  A 21.08 16.66 -28.9 0 1 741.5315 256.3152
  A 21.08 16.66 -28.9 0 1 715.0252 251.9176
  A 21.08 16.66 -28.9 0 1 725.4285 227.1448
  A 21.08 16.66 -28.9 0 1 751.9348 231.5424
  Z
  M 724.3553 251.6178
  A 13.59 9.01 133.5 0 0 740.2456 247.9621
  A 13.59 9.01 133.5 0 0 743.0647 231.9022
  A 13.59 9.01 133.5 0 0 727.1744 235.5579
  A 13.59 9.01 133.5 0 0 724.3553 251.6178
  Z"
/>
<path d="
  M 78.58 247.71
  C 79.08 259.08 69.22 258.53 61.49 259.19
  C 53.52 259.87 40.47 258.68 45.22 246.47
  Q 49.11 236.49 53.89 226.87
  Q 55.21 224.22 58.25 224.17
  C 64.19 224.08 81.08 222.86 84.24 229.59
  C 87.59 236.71 78.26 240.48 78.58 247.71
  Z
  M 60.23 244.96
  C 57.74 243.48 60.35 239.09 62.57 238.11
  Q 63.00 237.92 63.44 238.08
  Q 71.36 241.03 75.77 234.27
  A 2.24 2.23 29.8 0 0 74.89 231.06
  Q 74.52 230.88 73.50 230.85
  C 70.03 230.77 62.62 229.53 60.76 233.27
  Q 56.67 241.46 52.67 249.88
  A 1.19 1.19 0.0 0 0 53.30 251.50
  Q 60.71 254.46 67.94 251.27
  C 70.79 250.01 71.68 247.49 69.19 245.21
  A 1.02 1.00 -24.4 0 0 68.45 244.94
  L 61.31 245.23
  A 1.91 1.90 58.8 0 1 60.23 244.96
  Z"
/>
<path d="
  M 112.49 247.66
  A 2.33 2.33 0.0 0 0 111.90 251.30
  L 116.38 256.14
  A 1.52 1.52 0.0 0 1 115.31 258.69
  C 112.57 258.77 107.95 260.27 105.97 257.34
  C 103.88 254.25 102.94 251.69 100.03 249.17
  A 3.89 3.85 14.0 0 1 98.81 247.17
  C 97.26 240.86 105.18 242.84 108.11 241.88
  Q 113.47 240.11 115.26 234.99
  C 116.97 230.11 103.75 229.31 101.92 233.06
  Q 96.30 244.63 91.16 255.80
  Q 89.65 259.10 86.02 259.14
  L 82.65 259.18
  Q 79.14 259.22 80.66 256.05
  Q 87.07 242.66 93.32 229.77
  C 95.91 224.41 95.48 224.55 101.07 224.21
  Q 111.67 223.57 121.25 226.29
  C 122.45 226.63 123.36 227.70 123.69 228.96
  Q 126.90 241.01 115.48 246.19
  Q 113.68 247.01 112.49 247.66
  Z"
/>
<path d="
  M 391.71 251.44
  A 0.80 0.80 0.0 0 0 392.95 251.85
  Q 394.36 250.83 395.22 249.00
  Q 400.26 238.33 405.86 226.64
  Q 406.99 224.27 409.62 224.24
  L 415.08 224.19
  Q 417.71 224.16 416.66 226.57
  C 410.56 240.46 402.76 263.34 382.74 258.47
  A 1.41 1.40 4.4 0 1 381.67 257.23
  L 378.84 225.75
  A 1.40 1.40 0.0 0 1 380.24 224.22
  L 386.99 224.24
  Q 388.58 224.25 388.74 225.84
  Q 389.87 237.05 390.85 248.48
  C 390.95 249.53 391.41 250.45 391.71 251.44
  Z"
/>
<path d="
  M 612.24 252.64
  Q 616.01 253.22 619.59 252.05
  Q 622.65 251.06 622.60 254.27
  L 622.58 255.05
  Q 622.53 258.33 619.30 258.90
  C 612.93 260.01 597.82 258.65 602.72 247.63
  Q 606.91 238.22 611.42 227.94
  Q 613.11 224.08 617.32 224.16
  L 620.00 224.20
  Q 624.02 224.27 622.24 227.88
  Q 617.19 238.07 611.96 248.47
  Q 610.97 250.44 611.47 251.98
  A 0.96 0.96 0.0 0 0 612.24 252.64
  Z"
/>
<path d="
  M 645.00 245.21
  Q 645.43 244.58 645.54 244.06
  Q 649.23 241.33 653.79 241.18
  C 657.18 241.07 658.05 236.69 658.97 234.20
  Q 659.91 231.67 657.25 231.18
  L 653.54 230.50
  A 3.69 3.68 18.5 0 0 649.58 232.47
  L 643.88 243.80
  Q 643.39 244.06 643.29 244.85
  L 637.28 257.65
  A 1.91 1.90 11.8 0 1 635.58 258.76
  Q 632.80 258.81 629.26 259.22
  Q 628.02 259.37 627.01 258.77
  A 0.73 0.73 0.0 0 1 626.72 257.82
  Q 633.23 244.58 639.59 231.54
  Q 642.49 225.58 649.77 224.94
  Q 659.28 224.09 667.89 224.16
  A 3.16 3.16 0.0 0 1 670.87 228.29
  L 661.13 258.36
  A 0.68 0.66 -80.9 0 1 660.50 258.83
  L 651.02 258.83
  Q 650.51 258.83 650.58 258.32
  C 651.12 254.69 652.46 253.43 653.88 250.85
  A 1.67 1.66 10.6 0 0 652.20 248.40
  C 650.19 248.67 645.32 248.02 645.00 245.21
  Z"
/>
<path d="
  M 777.55 252.27
  A 1.21 1.21 0.0 0 0 778.18 250.16
  C 773.46 246.07 767.99 243.82 762.50 241.44
  C 756.24 238.73 758.18 230.14 763.33 227.32
  C 770.57 223.37 781.62 223.87 790.79 224.53
  Q 794.07 224.76 792.44 227.62
  L 791.78 228.79
  A 4.86 4.86 0.0 0 1 786.89 231.20
  C 780.67 230.34 772.62 229.71 767.61 232.42
  A 1.25 1.25 0.0 0 0 767.69 234.66
  Q 777.28 238.97 785.49 244.47
  C 793.13 249.59 783.42 255.35 779.38 257.13
  Q 776.64 258.33 772.96 258.58
  Q 766.97 258.99 754.64 259.07
  Q 751.33 259.09 753.19 256.36
  L 754.25 254.80
  Q 756.00 252.25 759.09 252.32
  C 764.73 252.47 771.42 253.07 777.55 252.27
  Z"
/>
</g>
<g fill="#6c6d6c">
<path d="
  M 370.91 168.99
  Q 370.80 170.17 372.36 170.10
  Q 372.00 171.21 371.12 171.41
  L 370.98 170.55
  Q 370.92 170.14 370.52 170.04
  L 369.64 169.81
  Q 369.86 169.07 370.91 168.99
  Z"
/>
<path d="
  M 403.87 180.89
  L 404.10 181.98
  Q 403.77 183.16 403.08 183.96
  L 402.24 183.99
  L 403.87 180.89
  Z"
/>
<path d="
  M 310.2473 241.5459
  A 21.91 19.92 -0.9 0 1 288.6529 261.8075
  A 21.91 19.92 -0.9 0 1 266.4327 242.2341
  A 21.91 19.92 -0.9 0 1 288.0271 221.9725
  A 21.91 19.92 -0.9 0 1 310.2473 241.5459
  Z
  M 288.4662 244.4596
  A 2.65 2.33 89.0 0 0 290.7496 241.7693
  A 2.65 2.33 89.0 0 0 288.3738 239.1604
  A 2.65 2.33 89.0 0 0 286.0904 241.8507
  A 2.65 2.33 89.0 0 0 288.4662 244.4596
  Z"
/>
<path d="
  M 643.88 243.80
  L 645.54 244.06
  Q 645.43 244.58 645.00 245.21
  L 643.29 244.85
  Q 643.39 244.06 643.88 243.80
  Z"
/>
</g>
</svg>
