<svg width="165" height="31" viewBox="0 0 165 31" fill="none" xmlns="http://www.w3.org/2000/svg">
<path d="M40.9709 22.3371C39.2416 20.5251 38.3633 18.2987 38.3633 15.6843C38.3633 13.0698 39.2416 10.8434 40.9709 9.0314C42.7001 7.21936 44.9066 6.31226 47.5648 6.31226C50.7995 6.31226 53.6816 8.04579 55.1596 10.7649L53.6056 11.696C52.5034 9.49586 50.1703 8.07196 47.5648 8.07196C45.3837 8.07196 43.5785 8.7959 42.1997 10.2721C40.821 11.7484 40.12 13.5342 40.12 15.6821C40.12 17.8299 40.821 19.618 42.1997 21.092C43.5785 22.5683 45.3837 23.2922 47.5648 23.2922C50.1724 23.2922 52.5034 21.8683 53.6056 19.6681L55.1596 20.5752C53.7302 23.2944 50.7974 25.0541 47.5648 25.0541C44.9066 25.0541 42.7022 24.1492 40.9709 22.3371Z" fill="#0A2864"/>
<path d="M59.4199 6.62195H61.1745V18.5823C61.1745 21.4824 62.9291 23.2944 65.9379 23.2944C68.9466 23.2944 70.7012 21.4824 70.7012 18.5823V6.62195H72.4558V18.5823C72.4558 20.5491 71.8541 22.13 70.6505 23.2944C69.447 24.4588 67.8677 25.0541 65.9379 25.0541C64.008 25.0541 62.4287 24.4588 61.2252 23.2944C60.0217 22.13 59.4199 20.5513 59.4199 18.5823V6.62195Z" fill="#0A2864"/>
<path d="M89.1269 6.62195H90.8814V24.7445H89.3781L79.6022 9.98654V24.7445H77.8477V6.62195H79.351L89.1269 21.3799V6.62195Z" fill="#0A2864"/>
<path d="M108.201 24.7445L106.571 20.2918H98.2477L96.6176 24.7445H94.7617L101.506 6.62195H103.311L110.055 24.7445H108.201ZM98.8748 18.5823H105.944L102.409 8.87446L98.8748 18.5823Z" fill="#0A2864"/>
<path d="M120.206 6.62195C121.785 6.62195 123.088 7.16491 124.142 8.253C125.195 9.34109 125.721 10.6865 125.721 12.3175C125.721 13.9486 125.195 15.294 124.142 16.3821C123.088 17.4702 121.785 18.0131 120.206 18.0131H115.694V24.7445H113.939V6.62195H120.206ZM120.206 16.3036C121.285 16.3036 122.187 15.9416 122.888 15.1893C123.614 14.4392 123.967 13.4798 123.967 12.3154C123.967 11.151 123.616 10.2177 122.888 9.46757C122.187 8.71746 121.283 8.32932 120.206 8.32932H115.694V16.3036H120.206Z" fill="#0A2864"/>
<path d="M141.136 24.7445L137.025 17.4964H132.112V24.7445H130.357V6.62195H137.376C138.831 6.62195 140.057 7.16491 141.086 8.22683C142.114 9.28876 142.64 10.5578 142.64 12.0581C142.64 13.2748 142.289 14.3869 141.561 15.3463C140.86 16.3036 139.956 16.925 138.854 17.263L143.14 24.7445H141.136ZM132.112 8.32932V15.7846H137.376C138.353 15.7846 139.181 15.4226 139.857 14.6965C140.534 13.9464 140.885 13.0655 140.885 12.0559C140.885 11.0201 140.534 10.1392 139.857 9.41523C139.179 8.69129 138.353 8.32714 137.376 8.32714H132.112V8.32932Z" fill="#0A2864"/>
<path d="M155.35 25.0541C152.819 25.0541 150.663 24.147 148.908 22.3349C147.154 20.4967 146.275 18.2966 146.275 15.6821C146.275 13.0676 147.154 10.8674 148.908 9.05539C150.663 7.21718 152.819 6.31226 155.35 6.31226C157.882 6.31226 160.038 7.21936 161.792 9.05539C163.547 10.8674 164.425 13.0676 164.425 15.6821C164.425 18.2966 163.547 20.4967 161.792 22.3349C160.038 24.1492 157.882 25.0541 155.35 25.0541ZM155.35 23.2944C157.43 23.2944 159.161 22.5704 160.565 21.0942C161.97 19.618 162.671 17.8059 162.671 15.6843C162.671 13.5604 161.97 11.7745 160.565 10.2983C159.161 8.82207 157.432 8.07196 155.35 8.07196C153.268 8.07196 151.539 8.82207 150.135 10.2983C148.731 11.7745 148.03 13.5604 148.03 15.6843C148.03 17.8081 148.731 19.6202 150.135 21.0942C151.539 22.5683 153.268 23.2944 155.35 23.2944Z" fill="#0A2864"/>
<path d="M1.27751 30.3878C1.14027 30.3878 1.00092 30.3529 0.870007 30.2809C0.45617 30.0476 0.302037 29.5134 0.527958 29.086L3.21368 23.9813C3.4396 23.5539 3.9569 23.3947 4.37073 23.628C4.78457 23.8614 4.9387 24.3956 4.71278 24.823L2.02917 29.9255C1.87293 30.2199 1.58155 30.3878 1.27751 30.3878Z" fill="#3EB5FF"/>
<path d="M8.17528 30.4488C7.70443 30.4488 7.32227 30.0541 7.32227 29.5679V18.6651C7.32227 18.1789 7.70443 17.7842 8.17528 17.7842C8.64612 17.7842 9.02829 18.1789 9.02829 18.6651V29.5679C9.02829 30.0541 8.64612 30.4488 8.17528 30.4488Z" fill="#0664EA"/>
<path d="M15.743 30.765C15.3756 30.765 15.0378 30.5186 14.9259 30.1392L9.92186 13.0589C9.78462 12.5923 10.0401 12.1017 10.4919 11.9599C10.9417 11.8182 11.4189 12.082 11.5561 12.5487L16.5601 29.6289C16.6974 30.0956 16.4419 30.5862 15.9901 30.7279C15.9077 30.7519 15.8233 30.765 15.743 30.765Z" fill="#0664EA"/>
<path d="M23.6163 30.7017C23.2975 30.7017 22.9935 30.5163 22.8457 30.2001L12.4089 7.76448C12.2041 7.32619 12.3836 6.79849 12.808 6.58698C13.2324 6.37765 13.7434 6.56081 13.9482 7.00128L24.3849 29.4391C24.5897 29.8774 24.4102 30.4051 23.9858 30.6166C23.8655 30.6733 23.7388 30.7017 23.6163 30.7017Z" fill="#0A2864"/>
<path d="M31.6714 30.6385C31.38 30.6385 31.095 30.4837 30.9366 30.2067L14.8244 2.09727C14.5837 1.6786 14.7189 1.13782 15.1242 0.889241C15.5296 0.640658 16.0533 0.780213 16.294 1.19888L32.4062 29.3083C32.6469 29.727 32.5118 30.2678 32.1064 30.5164C31.9691 30.5992 31.8192 30.6385 31.6714 30.6385Z" fill="#0A2864"/>
</svg>
